<?xml version="1.0" encoding="UTF-8" standalone="no"?>
<!-- Created with Inkscape (http://www.inkscape.org/) -->

<svg
   version="1.1"
   id="svg1"
   width="927.73425"
   height="927.73425"
   viewBox="0 0 927.73425 927.73425"
   xmlns:xlink="http://www.w3.org/1999/xlink"
   xmlns="http://www.w3.org/2000/svg"
   xmlns:svg="http://www.w3.org/2000/svg">
  <defs
     id="defs1">
    <linearGradient
       id="linearGradient17">
      <stop
         style="stop-color:#379237;stop-opacity:0.3045941;"
         offset="0"
         id="stop18" />
      <stop
         style="stop-color:#379237;stop-opacity:0.49803922;"
         offset="0.5"
         id="stop20" />
      <stop
         style="stop-color:#379237;stop-opacity:0.74901961;"
         offset="0.75"
         id="stop21" />
      <stop
         style="stop-color:#379237;stop-opacity:1;"
         offset="1"
         id="stop19" />
    </linearGradient>
    <linearGradient
       xlink:href="#linearGradient17"
       id="linearGradient19"
       x1="686.26471"
       y1="277.07761"
       x2="1318.3815"
       y2="218.15146"
       gradientUnits="userSpaceOnUse"
       gradientTransform="translate(5.3569224,-69.639991)" />
  </defs>
  <g
     id="g1"
     transform="translate(-274.18116,-168.55298)">
    <circle
       style="display:inline;opacity:1;mix-blend-mode:normal;fill:#000517;fill-opacity:1;stroke:none;stroke-width:0;stroke-dasharray:none;stroke-opacity:1"
       id="circle1"
       cx="738.04828"
       cy="632.4201"
       r="451.76712" />
    <circle
       style="opacity:1;mix-blend-mode:normal;fill:url(#linearGradient19);stroke:#379237;stroke-width:24.2;stroke-dasharray:none;stroke-opacity:1"
       id="path2"
       cx="738.04828"
       cy="632.4201"
       r="451.76712" />
    <path
       style="fill:#82cd47;fill-opacity:1"
       d="m 598.47088,1056.9021 c -7.36586,-1.8443 -10.19556,-7.9526 -11.423,-24.6582 -1.39252,-18.9526 0.60372,-35.69441 6.39219,-53.60911 3.44663,-10.6669 3.43174,-12.7152 -0.1459,-20.0791 -4.56544,-9.3971 -6.47144,-19.3161 -6.51806,-33.92081 -0.0592,-18.55278 3.71579,-34.36518 11.2624,-47.17483 2.1628,-3.67116 3.93237,-7.21662 3.93237,-7.8788 0,-0.66218 -1.62668,-3.0045 -3.61483,-5.20516 -9.61873,-10.64678 -11.69535,-24.96516 -6.79284,-46.83687 0.53441,-2.38418 0.20586,-2.70092 -4.03258,-3.88761 -2.53791,-0.71057 -4.9396,-1.80802 -5.33707,-2.43877 -0.39747,-0.63075 -3.78522,-2.4301 -7.52832,-3.99855 -14.05452,-5.88921 -27.73267,-16.54725 -35.09492,-27.34605 -4.90285,-7.19138 -8.59944,-16.29154 -8.59944,-21.16983 0,-2.67455 -0.44386,-3.10112 -4.25,-4.08451 -7.41199,-1.91502 -8.12846,-2.17887 -14.23349,-5.24169 -7.84673,-3.93662 -16.52935,-12.88298 -20.42486,-21.04529 -10.21208,-21.3975 -7.32985,-59.3009 6.65511,-87.5194 4.5426,-9.16594 4.59293,-9.37361 2.90825,-12 -4.05549,-6.32245 -9.60446,-18.26541 -11.96831,-25.75921 -2.91614,-9.24466 -7.20171,-30.58013 -8.21812,-40.91343 -0.56819,-5.77655 -1.18293,-7.52434 -3.51722,-10 -3.84049,-4.07307 -4.95136,-7.46418 -4.95136,-15.11476 0,-6.83706 1.34744,-10.57881 5.00107,-13.8876 2.09278,-1.89526 4.00165,-2.02327 37.24452,-2.49764 29.77298,-0.42486 35.15869,-0.72542 35.83721,-2 0.43919,-0.825 2.13078,-4.2 3.75909,-7.5 1.62831,-3.3 3.96032,-7.8 5.18223,-10 l 2.22166,-4 -3.59545,-5.43553 c -8.30225,-12.55117 -13.19215,-34.2293 -10.77367,-47.7623 0.68552,-3.83591 2.32759,-9.30803 3.64905,-12.16026 2.79704,-6.03712 10.87972,-14.95339 17.12556,-18.89178 2.99218,-1.88675 4.16811,-3.22104 3.7457,-4.25013 -0.33864,-0.825 -0.69191,-2.175 -0.78505,-3 -0.0931,-0.825 -2.08093,-5.38269 -4.41733,-10.1282 -2.3364,-4.74551 -5.43983,-13.07051 -6.89651,-18.5 -2.35881,-8.792 -2.64851,-11.67661 -2.64851,-26.3718 0,-14.73501 0.28615,-17.56718 2.67508,-26.47652 5.3072,-19.79286 17.62369,-40.11198 29.10867,-48.02198 4.61293,-3.17705 6.48889,-3.86889 10.65317,-3.92879 4.64872,-0.0669 5.35351,0.24828 8.78298,3.9273 2.37928,2.55241 5.51237,8.16181 8.6574,15.5 6.51757,15.2072 16.41944,34.96169 21.48279,42.85874 l 4.07703,6.35875 3.72322,-5.32931 c 4.63744,-6.6379 12.16502,-12.46051 18.62159,-14.40386 8.36146,-2.5167 19.73538,-1.9137 29.5685,1.56759 4.675,1.65513 9.1928,3.24827 10.03956,3.5403 0.92148,0.31781 4.33397,-1.71307 8.5,-5.05861 10.33858,-8.3024 17.3001,-11.43823 26.96044,-12.14438 11.01394,-0.8051 20.39674,1.36193 33.40332,7.71475 8.68542,4.24222 11.87573,6.48231 18.49239,12.98448 l 7.99617,7.8578 4.33901,-1.47313 c 9.7465,-3.30902 26.69187,-0.95641 39.95655,5.54737 9.01503,4.42015 17.12423,11.70381 23.76456,21.34529 2.13424,3.09881 4.2163,5.63421 4.62679,5.63421 0.4105,0 1.95796,-3.2625 3.4388,-7.25 11.77613,-31.70992 27.0347,-56.48144 45.9006,-74.51735 15.43647,-14.75737 26.20823,-20.98227 33.87739,-19.57742 4.8258,0.884 10.82912,4.66999 14.34585,9.04721 9.46497,11.7809 21.1926,45.28661 24.43046,69.79756 1.44592,10.94577 0.71296,31.14634 -1.50133,41.37749 -4.67629,21.60675 -15.79106,45.94181 -33.62627,73.62251 -3.18938,4.95 -5.94409,9.49 -6.12158,10.08889 -0.17749,0.59889 3.05229,3.77855 7.17729,7.06591 32.12603,25.60236 45.63822,62.0212 35.56064,95.8452 -0.81934,2.75 -3.0425,7.57864 -4.94036,10.73031 l -3.45066,5.73032 5.84004,5.96837 c 12.26436,12.53382 18.90286,28.11806 19.74986,46.36419 0.9747,20.99866 -4.6263,41.67031 -14.83482,54.75023 l -2.76552,3.54341 4.43654,6.89535 c 2.4401,3.79244 5.6528,10.5229 7.1394,14.95658 2.4418,7.2826 2.703,9.4618 2.7044,22.56124 0,12.0117 -0.3817,15.84013 -2.2321,22.30932 -2.4338,8.50855 -6.0417,16.33948 -9.89028,21.46705 -3.69742,4.92615 -3.76032,7.45536 -0.32027,12.87975 4.06845,6.41521 8.73225,18.77855 11.23575,29.78448 4.1129,18.08205 1.6909,50.57677 -4.9239,66.0594 -1.4099,3.3 -2.5566,6.9 -2.5482,8 0.01,1.1 1.6031,6.05 3.5438,11 6.1736,15.74656 9.1069,36.95501 8.0524,58.22151 -0.6611,13.3332 -1.5536,16.3662 -5.9525,20.2285 -5.9559,5.22931 -15.36111,3.8066 -20.20348,-3.0562 -1.41422,-2.0042 -1.79602,-6.1372 -2.34586,-25.3939 -0.7336,-25.6925 -1.90975,-32.2127 -8.4616,-46.90834 -6.76907,-15.18289 -6.77554,-15.56977 -0.5084,-30.4169 4.55718,-10.79617 6.10095,-17.45227 6.78401,-29.24992 1.1519,-19.89509 -2.56945,-34.29072 -13.19868,-51.05766 -5.63707,-8.89212 -7.35023,-14.22469 -6.13078,-19.08336 0.32262,-1.2854 3.14347,-5.70008 6.26857,-9.81041 17.30157,-22.75613 17.53983,-42.05259 0.82158,-66.53912 -9.61513,-14.08288 -9.54916,-17.05641 0.621,-27.98857 8.47911,-9.11441 12.72858,-18.34348 14.18781,-30.81332 1.99215,-17.02397 -1.61534,-27.82786 -14.41272,-43.16388 -9.52361,-11.41283 -12.82567,-16.35579 -12.82567,-19.1992 0,-1.24657 1.79006,-6.24197 3.97792,-11.10089 5.99341,-13.31054 7.34739,-19.73782 6.77402,-32.15584 -0.78145,-16.92449 -6.50933,-29.57671 -19.25194,-42.52529 -10.07865,-10.24156 -14.81303,-12.05215 -23.5,-8.98721 -6.83383,2.41111 -9.58221,1.96195 -14.16778,-2.31542 -3.50877,-3.27294 -4.15957,-4.536 -4.5773,-8.88342 -0.77603,-8.07629 0.9473,-11.34336 12.44629,-23.5955 12.81237,-13.65155 23.06191,-28.77408 31.75623,-46.85427 18.72516,-38.93972 20.1952,-63.65502 6.14384,-103.29481 -2.52348,-7.11888 -5.04708,-13.40237 -5.60802,-13.96331 -1.44625,-1.44625 -15.59281,12.8467 -22.9766,23.21435 -11.19354,15.71698 -22.37691,40.56271 -36.9958,82.19238 -6.85657,19.52522 -9.55507,29.47743 -11.92771,43.99002 -1.28915,7.88528 -3.46601,11.04786 -8.93374,12.97915 -5.87181,2.07401 -11.88576,0.0114 -14.48834,-4.96917 -1.64708,-3.15199 -1.77226,-5.33948 -1.25898,-22 0.31503,-10.2257 1.21736,-21.40719 2.01746,-25 l 1.44752,-6.5 -5.06438,-10 c -9.71029,-19.17372 -14.73732,-25.37165 -24.69029,-30.44114 -9.46572,-4.8213 -22.1182,-3.3116 -22.12614,2.64011 -0.008,6.00035 -6.3997,12.30103 -12.47872,12.30103 -3.40941,0 -8.61682,-2.25739 -10.63906,-4.61198 -0.89184,-1.03841 -2.41657,-4.36302 -3.38828,-7.38802 -4.51803,-14.06486 -11.57747,-22.9042 -22.76014,-28.49866 -8.26358,-4.1341 -14.40167,-4.60864 -19.4892,-1.50674 -5.01367,3.05687 -7.23213,7.50105 -7.24086,14.5054 -0.0123,9.88041 -5.04647,15.5 -13.88524,15.5 -5.87584,0 -8.50989,-1.33452 -16.6547,-8.438 -15.84353,-13.81789 -24.22995,-15.56634 -31.75704,-6.6209 -3.85124,4.57694 -4.15971,6.9851 -2.19221,17.11453 1.64404,8.46421 1.64708,9.24243 0.0523,13.41825 -0.93112,2.43811 -3.25439,5.80389 -5.16283,7.47952 -4.42675,3.88674 -9.05449,3.997 -18.7793,0.44743 -4.47019,-1.63163 -10.099,-2.78612 -15.12099,-3.10137 -7.37676,-0.46307 -8.4201,-0.28006 -13.39241,2.34917 -6.34028,3.35258 -10.95589,8.63624 -11.73044,13.42828 -0.51264,3.17171 -0.21465,3.66144 4.0579,6.66877 6.66513,4.69141 8.32953,10.73349 4.93011,17.89724 -2.35475,4.96225 -6.17369,6.59164 -14.54317,6.205 l -6.9505,-0.3211 -4.44659,4.32703 c -7.2346,7.04008 -9.92489,12.50099 -9.92489,20.14615 0,19.5342 20.07203,33.82588 35.77022,25.46909 2.61487,-1.392 6.29325,-2.58877 8.17418,-2.65948 5.81362,-0.21856 11.07671,4.61382 12.47586,11.45489 0.55323,2.70498 1.68139,3.7468 7.11858,6.57376 6.17556,3.21086 6.84908,3.34132 15.23707,2.95133 8.38254,-0.38973 9.26563,-0.6631 19.70132,-6.0988 6.00898,-3.12994 12.18482,-5.68911 13.72409,-5.68705 2.82756,0.004 4.83773,1.10508 13.65787,7.4827 8.32879,6.02234 15.49338,4.83196 30.23361,-5.02321 10.74469,-7.18378 14.24051,-7.96544 19.92151,-4.45439 4.04893,2.50238 5.90802,6.80577 5.20487,12.04813 -0.75558,5.6333 -2.70778,8.1696 -11.73824,15.25037 -6.43794,5.04798 -7.48959,6.2377 -5.68938,6.43631 1.21464,0.13401 20.65844,0.67832 43.20844,1.20958 43.86842,1.03351 42.61925,0.89271 65.5,7.38273 31.48983,8.93195 53.39384,14.93039 62.61144,17.14621 6.1113,1.4691 12.55088,3.54646 14.31018,4.61636 5.82205,3.5406 7.63441,11.91727 4.19765,19.40147 -2.86178,6.23207 -5.47001,8.02128 -11.47797,7.87375 -5.63863,-0.13846 -9.22179,-1.04693 -56.1413,-14.23384 -30.8389,-8.66739 -44.24366,-12.13991 -46.86301,-12.13991 -0.91026,0 -1.3054,3.51484 -1.48958,13.25 -0.13787,7.2875 -0.7009,16.175 -1.25118,19.75 -5.11854,33.25366 -26.25437,57.61354 -57.39623,66.15141 -10.70843,2.93583 -32.69268,3.17532 -42.49764,0.46295 -15.09506,-4.17578 -25.7946,-10.19998 -36.34054,-20.46096 -14.60618,-14.2115 -24.39892,-33.89222 -29.22471,-58.73361 -0.95303,-4.90589 -2.17136,-9.48229 -2.7074,-10.16979 -1.43722,-1.84334 -6.39724,-1.46682 -13.63943,1.0354 l -6.40972,2.2146 -1.35386,5.38314 c -0.74462,2.96072 -2.15289,6.48003 -3.12948,7.82068 -3.32332,4.56219 -17.65704,15.16903 -35.12879,25.99506 -19.38851,12.0137 -41.72635,28.00632 -41.27621,29.55141 0.16073,0.55168 4.12622,5.87319 8.8122,11.8256 l 8.51998,10.82254 9.12422,-6.92726 c 11.48923,-8.72281 25.76686,-16.07407 32.47005,-16.71816 6.65773,-0.63972 10.84817,1.57938 13.33795,7.06331 1.0447,2.30102 1.90934,6.02963 1.92142,8.2858 0.0368,6.86892 -2.99477,10.04532 -16.20866,16.98314 -24.56292,12.89652 -31.41906,21.17705 -30.55494,36.90284 0.9115,16.58813 9.09641,24.17248 28.16949,26.10255 12.99332,1.31484 26.42479,-3.69091 40.06436,-14.93153 5.46151,-4.50092 9.11781,-6.74791 11.68631,-7.18186 6.82277,-1.1527 14.03526,4.12204 15.47422,11.31683 1.3604,6.80202 -6.2519,17.26703 -18.89254,25.97252 -18.55611,12.77941 -32.67954,16.11125 -54.21628,12.7901 -13.15054,-2.02792 -20.76079,-3.88227 -27.12022,-6.60824 -7.14675,-3.06346 -7.8401,-0.31659 -2.70828,10.72951 2.9794,6.41307 11.84766,14.81032 19.6686,18.62396 16.80433,8.19412 46.36575,10.74463 70.81057,6.1094 9.60216,-1.82075 16.14848,-4.06539 27.09894,-9.29183 4.74765,-2.26596 10.12034,-4.11783 11.9408,-4.11577 7.36912,0.008 13.08341,6.57216 13.22981,15.19669 0.0709,4.17945 -0.36356,5.15767 -3.92022,8.82579 -6.83943,7.05379 -26.31475,15.06574 -43.88914,18.05555 -3.78902,0.6446 -13.01402,1.6774 -20.5,2.29511 l -13.61086,1.12312 -1.7534,3.58473 c -0.96437,1.9716 -2.23428,6.18607 -2.82203,9.3655 -1.66756,9.02063 0.0426,14.35747 7.01583,21.89396 11.75669,12.70637 11.83619,14.00788 1.94622,31.86048 -8.19481,14.79261 -11.84473,25.16085 -12.601,35.79533 -0.69017,9.70499 1.23351,17.38131 7.72662,30.83301 3.14566,6.5167 4.98776,11.6621 4.98776,13.9319 0,1.9794 -1.76186,7.9046 -3.91525,13.167 -6.00182,14.6672 -7.24373,22.2726 -7.95875,48.73911 -0.61974,22.9393 -0.65101,23.1978 -3.126,25.845 -4.4898,4.8022 -8.73742,6.194 -14.5,4.7512 z m -58.25005,-333.01722 2.62414,-2.75 -0.13262,-21.2136 -0.13261,-21.21359 -9.68906,-9.65271 -9.68907,-9.65271 -2.22087,5.8663 c -3.06013,8.0832 -5.98094,22.64952 -5.99672,29.90621 -0.0265,12.19284 4.88007,24.27688 11.75394,28.94779 5.0731,3.44727 10.0503,3.35952 13.48287,-0.23769 z m 79.58119,-204.75364 c -2.47339,-1.92701 -5.08551,-4.60314 -5.8047,-5.94697 -0.7192,-1.34382 -1.81355,-2.63746 -2.4319,-2.87474 -0.61835,-0.23728 -6.45619,-0.19612 -12.97299,0.0915 l -11.84872,0.52288 -1.86445,4.10551 c -1.02545,2.25802 -1.87434,4.6517 -1.88642,5.31929 -0.0223,1.2309 5.32311,1.59619 30.39215,2.07692 l 10.91411,0.20925 z m 68.41886,0.28315 c -1.61768,-0.78018 -2.88232,-0.78018 -4.5,0 -1.97551,0.95275 -1.70102,1.08513 2.25,1.08513 3.95102,0 4.22551,-0.13238 2.25,-1.08513 z M 604.60624,363.49363 c 3.41727,-1.68232 8.5037,-3.35126 11.30317,-3.70876 l 5.08994,-0.64999 -3.34552,-5 c -1.84004,-2.75 -7.56371,-12.425 -12.71927,-21.5 -5.15556,-9.075 -9.53095,-16.71196 -9.72308,-16.97103 -1.50318,-2.02682 -7.15955,16.40681 -8.5053,27.71801 -1.1233,9.44155 -0.14928,22.43944 2.12868,28.40623 l 1.01292,2.65321 4.27262,-3.94445 c 2.34994,-2.16946 7.06856,-5.3209 10.48584,-7.00322 z"
       id="path1" />
  </g>
</svg>
